HIERARCHY
ROOT joint_0
{
	OFFSET 0.000000 0.000000 0.000000
	CHANNELS 6 Xposition Yposition Zposition Zrotation Yrotation Xrotation 
	JOINT joint_1
	{
		OFFSET 14.113007 -2.961990 123.953979
		CHANNELS 3 Zrotation Yrotation Xrotation
		JOINT joint_2
		{
			OFFSET 0.764000 -2.434006 113.871948
			CHANNELS 3 Zrotation Yrotation Xrotation
			JOINT joint_3
			{
				OFFSET 0.186996 -2.169998 113.753052
				CHANNELS 3 Zrotation Yrotation Xrotation
				JOINT joint_4
				{
					OFFSET 16.096001 -2.720001 160.853027
					CHANNELS 3 Zrotation Yrotation Xrotation
					JOINT joint_5
					{
						OFFSET 34.392006 -0.188995 92.567017
						CHANNELS 3 Zrotation Yrotation Xrotation
						End Site
						{
							OFFSET 0.000000 0.000000 0.000000
						}
					}
				}
				JOINT joint_6
				{
					OFFSET 9.183998 -36.684006 89.597046
					CHANNELS 3 Zrotation Yrotation Xrotation
					JOINT joint_7
					{
						OFFSET 0.486000 -164.365997 -28.984009
						CHANNELS 3 Zrotation Yrotation Xrotation
						JOINT joint_8
						{
							OFFSET 38.899002 -34.967010 -291.651978
							CHANNELS 3 Zrotation Yrotation Xrotation
							JOINT joint_9
							{
								OFFSET 41.714005 -45.890991 -258.857056
								CHANNELS 3 Zrotation Yrotation Xrotation
								End Site
								{
									OFFSET 0.000000 0.000000 0.000000
								}
							}
						}
					}
				}
				JOINT joint_10
				{
					OFFSET 8.867004 33.650002 90.817993
					CHANNELS 3 Zrotation Yrotation Xrotation
					JOINT joint_11
					{
						OFFSET 0.018997 164.299999 -29.368042
						CHANNELS 3 Zrotation Yrotation Xrotation
						JOINT joint_12
						{
							OFFSET 29.440994 30.887997 -293.216919
							CHANNELS 3 Zrotation Yrotation Xrotation
							JOINT joint_13
							{
								OFFSET 46.174011 54.490005 -256.422058
								CHANNELS 3 Zrotation Yrotation Xrotation
								End Site
								{
									OFFSET 0.000000 0.000000 0.000000
								}
							}
						}
					}
				}
			}
		}
	}
	JOINT joint_14
	{
		OFFSET -2.264000 -89.466995 -116.150024
		CHANNELS 3 Zrotation Yrotation Xrotation
		JOINT joint_15
		{
			OFFSET -16.400993 -17.452988 -493.781982
			CHANNELS 3 Zrotation Yrotation Xrotation
			JOINT joint_16
			{
				OFFSET -50.497004 -13.404022 -424.754013
				CHANNELS 3 Zrotation Yrotation Xrotation
				JOINT joint_17
				{
					OFFSET 198.546007 -19.341003 -89.309000
					CHANNELS 3 Zrotation Yrotation Xrotation
					End Site
					{
						OFFSET 0.000000 0.000000 0.000000
					}
				}
			}
		}
	}
	JOINT joint_18
	{
		OFFSET -0.867996 96.016006 -110.817993
		CHANNELS 3 Zrotation Yrotation Xrotation
		JOINT joint_19
		{
			OFFSET -10.130997 24.658998 -493.645020
			CHANNELS 3 Zrotation Yrotation Xrotation
			JOINT joint_20
			{
				OFFSET -48.871004 19.434999 -424.714005
				CHANNELS 3 Zrotation Yrotation Xrotation
				JOINT joint_21
				{
					OFFSET 195.579996 24.926001 -94.327003
					CHANNELS 3 Zrotation Yrotation Xrotation
					End Site
					{
						OFFSET 0.000000 0.000000 0.000000
					}
				}
			}
		}
	}
}
MOTION
Frames: 18
Frame Time: 0.016667
-3082.383789 953.301636 1143.220947 -1.653034 -2.340987 -1.255658 -0.469984 -1.979893 3.147874 -0.415773 0.261728 -0.689688 -0.430564 -0.424390 0.466091 -0.619065 -0.854787 1.652840 0.000000 0.000000 0.000000 -0.943874 3.598450 -0.722733 -0.494266 3.511980 -1.210856 0.039774 -2.362588 -2.457531 0.000000 0.000000 0.000000 -1.396972 0.296460 1.077743 0.054121 0.555652 -0.257536 0.034713 0.667529 -0.610889 0.000000 0.000000 0.000000 3.386640 1.250802 3.986640 3.487425 1.467355 0.626765 3.602315 -4.005671 1.220309 0.000000 0.000000 0.000000 -3.005764 2.087087 -0.118111 -3.103159 0.133185 -0.407907 -3.174824 -3.133613 -1.126949 0.000000 0.000000 0.000000 
-3082.364746 953.336121 1143.182983 -1.556495 -2.378744 -1.226951 -0.504375 -1.951455 3.125649 -0.450597 0.256390 -0.690206 -0.465121 -0.416665 0.462925 -0.618373 -0.844342 1.650899 0.000000 0.000000 0.000000 -0.923782 3.596530 -0.710885 -0.496189 3.513890 -1.218910 0.038929 -2.359426 -2.458875 0.000000 0.000000 0.000000 -1.380859 0.310520 1.062201 0.054458 0.566942 -0.255292 0.032406 0.663907 -0.619297 0.000000 0.000000 0.000000 3.356014 1.292829 3.956175 3.456556 1.490346 0.629928 3.574737 -4.020452 1.206552 0.000000 0.000000 0.000000 -3.033999 2.123256 -0.154374 -3.134743 0.121211 -0.404358 -3.202818 -3.115423 -1.142699 0.000000 0.000000 0.000000 
-3082.321533 953.376221 1143.137939 -1.439569 -2.417079 -1.193992 -0.545497 -1.926641 3.098454 -0.492030 0.251033 -0.690985 -0.506262 -0.407930 0.458178 -0.617781 -0.829861 1.649208 0.000000 0.000000 0.000000 -0.905812 3.597369 -0.698646 -0.498186 3.518181 -1.228077 0.039525 -2.360464 -2.455939 0.000000 0.000000 0.000000 -1.363940 0.326102 1.047898 0.054490 0.579556 -0.252651 0.029106 0.657513 -0.629894 0.000000 0.000000 0.000000 3.318720 1.340056 3.920007 3.419046 1.511512 0.635005 3.541148 -4.038347 1.189805 0.000000 0.000000 0.000000 -3.068281 2.160403 -0.197320 -3.172736 0.106962 -0.397554 -3.236399 -3.096978 -1.161169 0.000000 0.000000 0.000000 
-3082.232422 953.409424 1143.078979 -1.325663 -2.469763 -1.164822 -0.585825 -1.888238 3.074582 -0.533088 0.240900 -0.692280 -0.546850 -0.394434 0.454580 -0.616302 -0.810826 1.645131 0.000000 0.000000 0.000000 -0.890367 3.598222 -0.686575 -0.500333 3.522059 -1.237650 0.039959 -2.359209 -2.451423 0.000000 0.000000 0.000000 -1.342657 0.341538 1.034585 0.054536 0.591242 -0.253107 0.026620 0.654054 -0.639492 0.000000 0.000000 0.000000 3.282129 1.404703 3.891445 3.383257 1.533653 0.634784 3.508560 -4.055431 1.173586 0.000000 0.000000 0.000000 -3.101143 2.211987 -0.236430 -3.209557 0.101957 -0.391805 -3.269566 -3.081621 -1.179047 0.000000 0.000000 0.000000 
-3082.123047 953.431152 1143.006958 -1.204408 -2.520527 -1.141278 -0.628156 -1.851798 3.055963 -0.576167 0.226674 -0.694818 -0.589317 -0.377358 0.451623 -0.614721 -0.784636 1.640774 0.000000 0.000000 0.000000 -0.881502 3.600111 -0.674853 -0.502356 3.525784 -1.246556 0.040440 -2.357409 -2.446092 0.000000 0.000000 0.000000 -1.317732 0.355807 1.025574 0.054654 0.601118 -0.260586 0.026053 0.657359 -0.646553 0.000000 0.000000 0.000000 3.242843 1.466199 3.872989 3.345141 1.559434 0.626830 3.472704 -4.066383 1.156511 0.000000 0.000000 0.000000 -3.137180 2.252414 -0.267832 -3.247793 0.115879 -0.388712 -3.305235 -3.066987 -1.198041 0.000000 0.000000 0.000000 
-3081.968262 953.447021 1142.921997 -1.086153 -2.585386 -1.121305 -0.670030 -1.802628 3.039691 -0.619182 0.208781 -0.695839 -0.631561 -0.355952 0.447715 -0.612420 -0.754287 1.634490 0.000000 0.000000 0.000000 -0.874412 3.601854 -0.662055 -0.504590 3.529070 -1.256247 0.040709 -2.353252 -2.439441 0.000000 0.000000 0.000000 -1.287023 0.369723 1.017983 0.054826 0.609612 -0.270654 0.026351 0.664388 -0.653278 0.000000 0.000000 0.000000 3.204207 1.544638 3.861449 3.308625 1.586562 0.614308 3.437837 -4.076454 1.139965 0.000000 0.000000 0.000000 -3.171588 2.306929 -0.295843 -3.284634 0.139160 -0.386668 -3.340270 -3.055224 -1.216364 0.000000 0.000000 0.000000 
-3081.666504 953.461487 1142.811035 -1.026979 -2.724007 -1.108441 -0.694040 -1.685037 3.032687 -0.646221 0.186504 -0.696415 -0.657521 -0.322373 0.444292 -0.608658 -0.729709 1.624316 0.000000 0.000000 0.000000 -0.861447 3.598296 -0.649003 -0.507271 3.528173 -1.265968 0.039206 -2.338425 -2.431636 0.000000 0.000000 0.000000 -1.249416 0.383450 1.006521 0.055059 0.616704 -0.278017 0.026398 0.671260 -0.661202 0.000000 0.000000 0.000000 3.182827 1.709445 3.862545 3.292880 1.612697 0.600498 3.422934 -4.096357 1.131369 0.000000 0.000000 0.000000 -3.181916 2.462512 -0.321082 -3.303335 0.155539 -0.384655 -3.358807 -3.060641 -1.224549 0.000000 0.000000 0.000000 
-3081.261230 953.451477 1142.673950 -1.064301 -2.963363 -1.106065 -0.682080 -1.472180 3.029881 -0.639929 0.157975 -0.687697 -0.649677 -0.271044 0.437225 -0.601839 -0.711994 1.605983 0.000000 0.000000 0.000000 -0.846357 3.589882 -0.630061 -0.509422 3.522722 -1.268114 0.034769 -2.319408 -2.437525 0.000000 0.000000 0.000000 -1.230898 0.392540 0.997586 0.054745 0.622463 -0.284364 0.025353 0.673520 -0.669655 0.000000 0.000000 0.000000 3.190187 1.984309 3.882287 3.310408 1.638857 0.586162 3.439965 -4.124937 1.136166 0.000000 0.000000 0.000000 -3.154627 2.752787 -0.338843 -3.292440 0.160715 -0.384978 -3.350038 -3.082565 -1.217467 0.000000 0.000000 0.000000 
-3080.707764 953.440186 1142.510986 -1.161038 -3.277384 -1.110190 -0.652307 -1.188967 3.035832 -0.617810 0.123776 -0.676448 -0.625665 -0.207477 0.428404 -0.593639 -0.699782 1.583934 0.000000 0.000000 0.000000 -0.824032 3.576291 -0.611120 -0.512038 3.513460 -1.269384 0.028498 -2.289645 -2.442543 0.000000 0.000000 0.000000 -1.204498 0.401384 0.986820 0.054440 0.626576 -0.289574 0.024292 0.676544 -0.679099 0.000000 0.000000 0.000000 3.215171 2.346860 3.914462 3.349287 1.663542 0.570025 3.477416 -4.162905 1.149148 0.000000 0.000000 0.000000 -3.102970 3.145506 -0.353905 -3.263532 0.158295 -0.385412 -3.324770 -3.119665 -1.200478 0.000000 0.000000 0.000000 
-3079.780762 953.492188 1142.321045 -1.263922 -3.644738 -1.109951 -0.642419 -0.859282 3.060411 -0.616853 0.087530 -0.680272 -0.622739 -0.139547 0.430737 -0.585158 -0.698954 1.561042 0.000000 0.000000 0.000000 -0.768274 3.550042 -0.607872 -0.518591 3.498101 -1.291581 0.021268 -2.221057 -2.408692 0.000000 0.000000 0.000000 -1.086720 0.423262 0.945953 0.056255 0.627827 -0.276892 0.023904 0.691475 -0.699115 0.000000 0.000000 0.000000 3.241089 2.795054 3.942760 3.392560 1.681302 0.552421 3.519423 -4.220300 1.162263 0.000000 0.000000 0.000000 -3.043687 3.627168 -0.385159 -3.233584 0.142889 -0.376411 -3.298108 -3.178035 -1.180069 0.000000 0.000000 0.000000 
-3078.642578 953.706421 1142.088989 -1.355520 -4.137379 -1.103612 -0.674789 -0.386134 3.124731 -0.661764 0.039693 -0.714015 -0.665154 -0.050538 0.450763 -0.577669 -0.717414 1.540824 0.000000 0.000000 0.000000 -0.623010 3.487330 -0.617154 -0.528789 3.462689 -1.356427 0.017509 -2.140244 -2.338917 0.000000 0.000000 0.000000 -0.823504 0.437997 0.842201 0.058837 0.596142 -0.223846 0.022873 0.718647 -0.737495 0.000000 0.000000 0.000000 3.261196 3.395872 3.963570 3.435649 1.705258 0.535175 3.562857 -4.310133 1.172815 0.000000 0.000000 0.000000 -2.978432 4.260795 -0.444830 -3.207848 0.126422 -0.354467 -3.275659 -3.265869 -1.157815 0.000000 0.000000 0.000000 
-3077.130127 953.983948 1141.829956 -1.453456 -4.684610 -1.092840 -0.727451 0.136822 3.206918 -0.728423 -0.011929 -0.763003 -0.729213 0.042885 0.480628 -0.570082 -0.749167 1.520237 0.000000 0.000000 0.000000 -0.441844 3.411693 -0.644323 -0.542717 3.421379 -1.439365 0.012672 -2.020193 -2.230476 0.000000 0.000000 0.000000 -0.466807 0.465983 0.711337 0.063267 0.561274 -0.155838 0.022733 0.757896 -0.785404 0.000000 0.000000 0.000000 3.282041 4.084146 3.980421 3.483525 1.721013 0.516183 3.611039 -4.416099 1.183862 0.000000 0.000000 0.000000 -2.905257 4.985068 -0.519861 -3.181523 0.095954 -0.323478 -3.252039 -3.370695 -1.132737 0.000000 0.000000 0.000000 
-3074.518311 954.101624 1141.577026 -1.555482 -5.050682 -1.075423 -0.768564 0.393467 3.259396 -0.777246 -0.031465 -0.796515 -0.777051 0.079838 0.501263 -0.563001 -0.775227 1.500502 0.000000 0.000000 0.000000 -0.375127 3.389577 -0.712571 -0.564570 3.414818 -1.496490 -0.005041 -1.754326 -2.034268 0.000000 0.000000 0.000000 -0.106842 0.581031 0.633895 0.075916 0.614267 -0.129723 0.029191 0.822066 -0.826255 0.000000 0.000000 0.000000 3.306574 4.660646 3.991260 3.533022 1.680502 0.488701 3.657308 -4.510146 1.195231 0.000000 0.000000 0.000000 -2.836712 5.600119 -0.588989 -3.157021 0.009601 -0.285682 -3.227042 -3.477835 -1.106797 0.000000 0.000000 0.000000 
-3070.480713 953.967529 1141.364014 -1.691210 -5.137937 -1.049770 -0.778920 0.207398 3.269565 -0.784918 0.003858 -0.803329 -0.786357 0.026108 0.506216 -0.555527 -0.757037 1.478670 0.000000 0.000000 0.000000 -0.530986 3.465662 -0.829084 -0.598720 3.469132 -1.516677 -0.036055 -1.266533 -1.666317 0.000000 0.000000 0.000000 0.258254 0.830316 0.628591 0.100391 0.802685 -0.153157 0.039856 0.911084 -0.872963 0.000000 0.000000 0.000000 3.346229 5.049835 3.995690 3.593363 1.549063 0.446539 3.708063 -4.581075 1.210916 0.000000 0.000000 0.000000 -2.767145 6.045844 -0.646284 -3.127311 -0.184295 -0.238536 -3.191316 -3.583098 -1.076104 0.000000 0.000000 0.000000 
-3065.343750 953.674622 1141.156982 -1.831189 -5.043346 -1.019197 -0.777787 -0.247119 3.254262 -0.775224 0.071828 -0.794556 -0.779858 -0.081815 0.501933 -0.548327 -0.738137 1.456963 0.000000 0.000000 0.000000 -0.798338 3.593240 -0.987544 -0.640679 3.556530 -1.514736 -0.081387 -0.626614 -1.218190 0.000000 0.000000 0.000000 0.628840 1.165548 0.678557 0.134587 1.077846 -0.212666 0.056968 1.024865 -0.912954 0.000000 0.000000 0.000000 3.390060 5.326520 3.994293 3.655130 1.360943 0.396417 3.756794 -4.636619 1.227174 0.000000 0.000000 0.000000 -2.702550 6.381788 -0.698593 -3.099176 -0.434254 -0.184094 -3.153999 -3.686941 -1.044879 0.000000 0.000000 0.000000 
-3059.369141 953.274414 1140.891968 -1.887225 -4.820159 -0.990868 -0.794052 -0.761038 3.215382 -0.781541 0.137784 -0.778762 -0.789520 -0.199535 0.491946 -0.542242 -0.816964 1.438771 0.000000 0.000000 0.000000 -0.985041 3.702531 -1.179586 -0.681960 3.640163 -1.493215 -0.151680 0.046611 -0.897992 0.000000 0.000000 0.000000 0.926936 1.519416 0.797477 0.176839 1.386163 -0.323097 0.092786 1.171790 -0.888257 0.000000 0.000000 0.000000 3.408699 5.512099 3.990189 3.688069 1.172654 0.349773 3.778108 -4.676756 1.232581 0.000000 0.000000 0.000000 -2.673545 6.583421 -0.741066 -3.095232 -0.625028 -0.131886 -3.142233 -3.785805 -1.026587 0.000000 0.000000 0.000000 
-3052.386475 952.772156 1140.530029 -1.799991 -4.438394 -0.971270 -0.849111 -1.336739 3.143162 -0.824579 0.194624 -0.756146 -0.835758 -0.319372 0.472626 -0.540196 -1.046668 1.432497 0.000000 0.000000 0.000000 -1.035574 3.767211 -1.430455 -0.721916 3.703739 -1.441197 -0.263787 0.790584 -0.772376 0.000000 0.000000 0.000000 1.147429 1.910728 1.028518 0.221783 1.746501 -0.527650 0.141970 1.314186 -0.783544 0.000000 0.000000 0.000000 3.383584 5.614791 3.995210 3.677165 0.927233 0.290773 3.753130 -4.680345 1.220729 0.000000 0.000000 0.000000 -2.701538 6.621705 -0.773127 -3.135326 -0.760234 -0.064504 -3.171058 -3.853351 -1.031815 0.000000 0.000000 0.000000 
-3044.563965 952.164612 1140.109985 -1.628863 -3.927767 -0.950056 -0.922540 -1.973888 3.042602 -0.883659 0.250983 -0.725658 -0.898165 -0.447834 0.446284 -0.539583 -1.373928 1.431267 0.000000 0.000000 0.000000 -1.002600 3.814355 -1.705736 -0.760374 3.764410 -1.375614 -0.398199 1.563272 -0.767337 0.000000 0.000000 0.000000 1.297572 2.320235 1.314565 0.275417 2.139353 -0.768672 0.209158 1.489071 -0.618115 0.000000 0.000000 0.000000 3.333283 5.626267 3.997893 3.637526 0.680110 0.234232 3.700372 -4.659510 1.198649 0.000000 0.000000 0.000000 -2.765419 6.525644 -0.795417 -3.199659 -0.837797 0.000314 -3.224852 -3.908421 -1.050562 0.000000 0.000000 0.000000 
